<?xml version="1.0" standalone="no"?>
<!DOCTYPE svg PUBLIC "-//W3C//DTD SVG 20010904//EN"
 "http://www.w3.org/TR/2001/REC-SVG-20010904/DTD/svg10.dtd">
<svg version="1.0" xmlns="http://www.w3.org/2000/svg"
 width="666.000000pt" height="666.000000pt" viewBox="0 0 666.000000 666.000000"
 preserveAspectRatio="xMidYMid meet">
<metadata>
Created by potrace 1.14, written by Peter Selinger 2001-2017
</metadata>
<g transform="translate(0.000000,666.000000) scale(0.100000,-0.100000)"
fill="#000000" stroke="none">
<path d="M2038 4485 c-3 -4 -25 -8 -47 -10 -57 -6 -96 -39 -110 -93 -7 -26
-11 -120 -11 -230 1 -164 4 -193 22 -234 16 -37 28 -50 59 -62 88 -36 170 -10
206 64 21 43 22 56 20 255 -2 221 -5 239 -51 277 -12 9 -30 17 -41 18 -12 0
-26 5 -31 10 -6 6 -13 8 -16 5z m10 -132 c10 -21 9 -374 -1 -390 -4 -6 -13
-10 -20 -9 -36 5 -38 14 -37 207 1 165 4 190 18 199 24 13 30 12 40 -7z"/>
<path d="M669 4477 c-1 -1 -2 -142 -3 -314 -1 -210 2 -314 9 -316 5 -2 53 -2
106 -1 108 2 138 15 167 68 13 26 16 67 17 247 2 307 -2 314 -192 317 -57 1
-104 1 -104 -1z m168 -119 c11 -15 11 -377 0 -395 -7 -11 -46 -14 -48 -3 -1 3
-3 96 -3 208 -2 201 -2 202 20 202 12 0 26 -6 31 -12z"/>
<path d="M1019 4456 c0 -11 -2 -31 -3 -43 -2 -13 1 -23 6 -23 5 0 6 -5 2 -12
-12 -19 -11 -528 1 -529 15 -2 78 -2 95 0 13 1 15 41 14 303 -1 167 -2 308 -3
315 -1 8 -20 12 -56 12 -49 -1 -55 -3 -56 -23z"/>
<path d="M1243 4460 c-47 -28 -65 -69 -64 -142 0 -20 5 -47 10 -60 5 -12 9
-26 10 -30 1 -4 33 -39 71 -77 66 -65 109 -138 92 -156 -4 -4 -8 -11 -8 -16
-1 -5 -2 -13 -3 -18 0 -6 -10 -9 -21 -8 -23 1 -34 26 -36 77 -1 19 -2 40 -3
45 -1 10 -48 10 -97 0 -19 -4 -21 -10 -18 -42 11 -101 16 -124 30 -138 9 -8
12 -15 7 -15 -4 0 6 -7 22 -16 17 -9 57 -18 90 -21 87 -6 136 29 148 106 1 9
6 22 10 29 5 7 3 12 -3 12 -6 0 -9 4 -5 9 9 16 13 71 4 71 -5 0 -8 3 -7 8 8
22 -34 85 -97 148 -80 78 -98 116 -64 135 26 13 36 4 41 -36 3 -29 4 -30 63
-30 57 0 60 1 61 25 2 30 -23 109 -39 125 -38 37 -145 45 -194 15z"/>
<path d="M1605 4466 c-61 -28 -78 -70 -79 -196 -1 -41 -5 -81 -9 -87 -5 -7 -5
-13 0 -13 4 0 8 -51 8 -113 1 -94 4 -119 20 -147 30 -50 78 -72 147 -67 57 5
124 39 113 57 -3 5 0 10 7 12 14 5 25 197 12 199 -36 6 -107 3 -111 -4 -3 -5
-5 -33 -4 -64 0 -53 -11 -93 -27 -93 -4 0 -14 4 -22 10 -12 7 -14 43 -15 200
-1 188 3 209 33 204 6 -1 16 -2 21 -3 4 0 8 -25 8 -54 -1 -79 3 -83 64 -82
l54 1 1 75 c1 90 -19 137 -68 160 -43 20 -115 22 -153 5z"/>
<path d="M2219 4468 c-1 -7 -1 -17 1 -23 1 -5 3 -32 5 -60 2 -27 5 -50 5 -50
2 0 9 -54 14 -110 2 -27 7 -63 10 -80 3 -16 8 -55 12 -85 3 -30 8 -66 10 -80
3 -14 8 -47 10 -75 3 -27 6 -51 7 -51 4 -4 63 -6 118 -5 50 1 55 3 56 24 0 12
4 51 8 87 4 36 8 79 10 95 2 17 4 30 5 30 1 0 3 14 4 30 9 106 19 172 27 182
7 7 6 13 0 17 -6 4 -7 15 -1 30 4 13 11 49 14 80 l5 56 -60 0 c-49 0 -59 -3
-60 -17 0 -10 -2 -34 -4 -53 -10 -96 -16 -161 -21 -224 -3 -39 -9 -77 -14 -85
-7 -13 -9 -13 -8 4 0 11 -2 43 -6 70 -4 28 -9 77 -11 110 -3 33 -8 71 -12 85
-3 14 -7 41 -8 60 -2 19 -3 38 -4 43 -2 13 -111 8 -112 -5z"/>
<path d="M2579 4466 c-1 -15 -1 -598 0 -611 1 -8 158 -12 242 -6 15 1 17 15
10 108 -1 9 -18 12 -61 9 -33 -2 -61 0 -61 3 -1 3 -3 36 -4 74 l-2 67 31 1
c17 1 43 0 58 -1 29 -2 36 16 30 82 -4 36 -4 36 -50 36 -26 0 -52 1 -57 1 -7
1 -11 27 -10 64 l0 62 40 2 c22 1 49 2 61 2 18 1 20 8 22 59 l1 58 -124 1
c-86 0 -125 -3 -126 -11z"/>
<path d="M2891 4470 c-5 -3 -8 -49 -7 -102 1 -54 -2 -98 -7 -98 -4 0 -5 -5 -1
-12 4 -7 9 -98 9 -203 1 -104 3 -195 3 -201 1 -8 24 -11 60 -11 l58 1 -1 143
c0 140 0 143 21 143 12 0 24 -6 27 -12 2 -7 4 -68 5 -135 0 -67 3 -126 6 -131
5 -8 77 -10 107 -3 10 2 9 271 -1 271 -5 0 -7 6 -4 14 3 8 -3 20 -13 27 -19
11 -19 12 4 37 24 26 26 39 25 133 0 56 -27 133 -42 124 -5 -3 -10 0 -12 6 -4
12 -220 20 -237 9z m165 -118 c12 -7 12 -81 0 -101 -10 -16 -46 -13 -47 4 -1
8 -1 26 -1 40 0 57 2 65 20 65 9 0 22 -4 28 -8z"/>
<path d="M746 3614 c-3 -9 -4 -20 -1 -25 7 -10 -34 -22 -61 -17 -18 3 -19 -21
-19 -717 l0 -720 370 -1 c204 0 375 1 381 3 6 2 9 15 6 29 -3 17 0 24 12 25
16 2 50 5 64 8 4 0 7 103 6 228 -1 206 -2 228 -17 227 -9 -1 -17 1 -17 5 0 3
-21 5 -47 3 -27 -1 -57 -2 -68 -2 -30 1 -129 7 -135 9 -3 0 -5 216 -5 479 l0
477 -231 3 c-205 2 -232 1 -238 -14z"/>
<path d="M1679 3623 c-1 -5 -2 -12 -4 -18 -1 -5 -3 -16 -3 -23 -1 -7 -8 -12
-14 -11 -7 1 -24 1 -38 0 l-25 -1 0 -717 0 -718 440 0 440 0 3 28 c3 27 14 32
70 27 19 -1 21 1 13 23 -5 13 -6 28 -3 34 9 15 8 136 -2 151 -4 7 -4 12 1 12
10 0 10 91 -1 108 -4 7 -4 12 1 12 4 0 7 26 6 57 -2 77 -1 75 -15 70 -7 -2
-21 0 -30 4 -10 6 -19 5 -23 -1 -3 -5 -15 -6 -28 -1 -12 5 -32 5 -44 0 -12 -4
-35 -4 -51 0 -16 5 -35 5 -43 1 -7 -5 -21 -4 -31 1 -10 5 -18 6 -18 2 0 -4
-19 -7 -42 -6 -24 1 -51 2 -60 2 -10 1 -18 4 -18 9 0 7 38 52 106 124 19 20
34 39 34 42 0 3 15 21 33 39 57 61 87 97 87 106 0 5 -51 9 -112 9 -62 0 -123
1 -135 1 -21 1 -23 6 -23 55 0 34 5 55 13 58 6 3 80 4 162 4 l150 -1 5 30 c4
26 9 30 37 31 18 0 35 3 38 6 11 10 12 63 2 76 -5 7 -6 12 0 12 10 0 10 80 -1
98 -4 6 -4 12 1 12 4 0 8 27 8 60 0 33 -4 60 -8 60 -4 0 -4 8 1 18 10 21 9 62
-1 80 -5 6 -4 12 2 12 6 0 8 7 5 15 -5 13 -64 15 -445 15 -241 0 -440 -3 -440
-7z"/>
<path d="M2722 3603 c3 -25 0 -27 -32 -28 -41 -1 -63 -12 -54 -26 3 -5 8 -21
10 -36 3 -14 12 -53 20 -87 8 -34 16 -70 18 -82 2 -11 6 -26 10 -33 4 -6 9
-26 12 -44 4 -33 8 -53 50 -227 14 -58 27 -116 30 -130 2 -14 9 -38 14 -55 5
-16 11 -43 14 -60 2 -16 5 -30 6 -30 1 0 3 -11 6 -25 10 -62 47 -206 56 -215
4 -5 24 -10 43 -12 27 -1 35 2 41 20 10 34 23 45 45 40 16 -4 19 -11 14 -27
-3 -11 -8 -32 -11 -46 -3 -14 -11 -53 -19 -86 -8 -34 -16 -73 -19 -85 -7 -39
-27 -123 -33 -139 -3 -8 -7 -24 -8 -35 -2 -20 3 -21 234 -20 l235 0 8 31 c7
27 11 30 43 29 23 -1 35 3 36 11 1 8 2 17 3 22 9 35 31 129 32 137 2 16 15 68
21 85 7 18 12 37 18 70 2 14 7 36 10 50 3 14 10 43 15 65 5 22 15 66 23 98 8
31 12 57 9 57 -2 0 1 6 7 14 7 8 11 20 10 28 -1 7 0 20 4 28 5 14 27 104 33
140 15 78 22 108 33 144 6 17 12 42 15 56 3 14 7 34 10 45 7 31 37 167 42 195
3 14 14 56 25 95 10 38 19 75 19 82 0 11 -49 13 -237 11 l-238 -3 -3 -22 c-3
-23 -7 -25 -47 -27 -22 -1 -45 -41 -48 -84 -2 -33 -26 -64 -25 -34 0 9 -3 28
-6 42 -3 14 -11 49 -17 78 l-12 52 -234 0 -234 0 3 -27z"/>
<path d="M3911 3618 c4 -33 -2 -45 -23 -45 -63 -1 -58 19 -58 -233 0 -177 3
-230 13 -231 6 0 59 -2 117 -2 l105 -2 5 -485 5 -486 225 1 c124 0 230 3 237
8 6 4 9 16 6 27 -5 20 3 24 53 22 13 0 24 6 26 16 2 9 4 212 3 450 0 289 3
436 10 440 5 4 37 8 70 8 88 3 88 3 81 19 -11 29 5 45 43 45 l37 0 0 228 -1
227 -478 3 c-380 2 -478 0 -476 -10z"/>
<path d="M5019 3623 c-1 -5 -1 -16 0 -25 1 -10 -4 -19 -11 -20 -7 0 -22 -2
-33 -3 -11 -1 -24 -3 -30 -4 -11 -1 -14 -1409 -3 -1427 5 -7 140 -10 439 -10
423 1 432 1 439 21 4 11 6 23 3 28 -4 7 26 11 60 8 9 -1 18 1 18 6 1 4 2 110
3 236 1 195 -1 227 -14 228 -23 1 -101 -1 -143 -4 -21 -1 -43 1 -49 4 -6 4
-21 4 -33 -1 -12 -4 -29 -4 -38 1 -11 7 -17 6 -17 -1 0 -7 -6 -8 -18 -1 -11 6
-23 7 -28 2 -5 -4 -22 -5 -37 -2 -28 6 -29 6 -10 28 10 12 27 32 37 45 70 84
202 234 209 236 4 2 7 7 7 12 0 5 -53 8 -117 8 -181 0 -163 -7 -163 60 l0 58
165 -1 c178 0 173 -2 166 52 -1 7 15 13 41 15 l43 3 0 215 c0 118 -1 221 -3
228 -3 9 -101 12 -443 12 -241 0 -440 -3 -440 -7z"/>
</g>
</svg>
